<mxfile host="app.diagrams.net" modified="2023-11-16T08:04:01.436Z" agent="Mozilla/5.0 (Windows NT 10.0; Win64; x64) AppleWebKit/537.36 (KHTML, like Gecko) Chrome/119.0.0.0 Safari/537.36" version="22.1.2" etag="GrHmYqvjTSgmwFb9LcKP" type="github">
  <diagram name="Pagina-1" id="7wbDW0kHldwmvDnnaF1s">
    <mxGraphModel>
      <root>
        <mxCell id="0" />
        <mxCell id="1" parent="0" />
      </root>
    </mxGraphModel>
  </diagram>
</mxfile>
